<svg width="140" height="27" viewBox="0 0 140 27" fill="none" xmlns="http://www.w3.org/2000/svg">
<g clip-path="url(#clip0_103:2457)">
<path fill-rule="evenodd" clip-rule="evenodd" d="M13.3618 6.58887H6.6806V13.1776H-0.000244141V19.7666V26.3553H6.6806H13.3618L20.0426 26.3549V19.7662V13.1776V6.58887H13.3618ZM13.3618 13.1776V16.5953V19.7662H9.89644L6.6806 19.7666V16.3485V13.1776H13.3618Z" fill="#EABD26"/>
<path fill-rule="evenodd" clip-rule="evenodd" d="M-0.000244141 6.58942H6.6806V0.000732422H-0.000244141V6.58942Z" fill="#EABD26"/>
<path fill-rule="evenodd" clip-rule="evenodd" d="M41.3341 23.2739C43.9865 23.2739 44.9596 22.5183 44.9596 20.5705C44.9596 18.565 43.9276 17.8384 40.9803 17.8384H37.0014V23.2739H41.3341ZM40.8628 14.757C43.4268 14.757 44.3407 14.0881 44.3407 12.1992C44.3407 10.3385 43.4268 9.6697 40.9803 9.6697H37.0014V14.757H40.8628ZM33.4058 6.58862H41.3047C45.8436 6.58862 47.9068 8.18743 47.9068 11.7337C47.9068 13.9138 47.1109 15.2802 45.2247 15.9484V16.0065C47.5825 16.7044 48.5552 18.2451 48.5552 20.832C48.5552 24.6403 46.4919 26.3554 41.9236 26.3554H33.4058V6.58862Z" fill="#A3A3A3"/>
<mask id="mask0_103:2457" style="mask-type:alpha" maskUnits="userSpaceOnUse" x="0" y="-1" width="140" height="28">
<path d="M0 26.7038H139.742V-0.000244141H0V26.7038Z" fill="#F8BF00"/>
</mask>
<g mask="url(#mask0_103:2457)">
<path fill-rule="evenodd" clip-rule="evenodd" d="M51.7966 26.3554H55.3923V6.58862H51.7966V26.3554Z" fill="#A3A3A3"/>
<path fill-rule="evenodd" clip-rule="evenodd" d="M63.2315 9.75719H57.6021V6.58862H72.4566V9.75719H66.8272V26.355H63.2315V9.75719Z" fill="#A3A3A3"/>
<path fill-rule="evenodd" clip-rule="evenodd" d="M74.6663 6.58838H87.8706V9.69919H78.2622V14.8148H86.3971V17.9253H78.2622V26.3551H74.6663V6.58838Z" fill="#A3A3A3"/>
<path fill-rule="evenodd" clip-rule="evenodd" d="M90.0215 19.7858V6.58862H93.6175V19.6987C93.6175 22.547 94.6491 23.5938 97.4491 23.5938C100.249 23.5938 101.28 22.547 101.28 19.6987V6.58862H104.758V19.7858C104.758 24.611 102.577 26.704 97.3902 26.704C92.232 26.704 90.0215 24.611 90.0215 19.7858Z" fill="#A3A3A3"/>
<path fill-rule="evenodd" clip-rule="evenodd" d="M115.574 15.6288C118.109 15.6288 118.993 14.7857 118.993 12.664C118.993 10.5129 118.109 9.69909 115.574 9.69909H111.566V15.6288H115.574ZM107.97 6.58862H115.928C120.673 6.58862 122.589 8.36174 122.589 12.664C122.589 15.9487 121.44 17.7509 118.758 18.4197L123.355 26.3554H119.229L114.867 18.7103H111.566V26.3554H107.97V6.58862Z" fill="#A3A3A3"/>
<path fill-rule="evenodd" clip-rule="evenodd" d="M132.963 17.9544V26.3551H129.367V18.0125L122.588 6.58838H126.714L131.312 14.4372L135.88 6.58838H139.741L132.963 17.9544Z" fill="#A3A3A3"/>
</g>
</g>
<defs>
<clipPath id="clip0_103:2457">
<rect width="140" height="27" fill="white"/>
</clipPath>
</defs>
</svg>
